# xmcd
#
# Track frame offsets: 
#        150
#        31472
#        48600
#        68179
#        87231
#        102129
#        114194
#        141805
#        164375
#        188534
#        208126
#        229578
#        250324
#        265265
#
# Disc length: 3681 seconds
#
# Revision: 0
# Processed by: cddbd v1.5.2PL0 Copyright (c) Steve Scherf et al.
# Submitted via: ExactAudioCopyFreeDBPlugin 1.0
#
DISCID=be0e5f0e
DTITLE=Muddy Waters - The Mojo Man
DYEAR=1900
DGENRE=Blues
TTITLE0=Long Distance Call
TTITLE1=Got My Mojo Workin'
TTITLE2=Where's My Woman Been
TTITLE3=Country Boy
TTITLE4=Hoochie Coochie Man
TTITLE5=Baby Please Don't Go
TTITLE6=County Jail
TTITLE7=Rock Me Baby
TTITLE8=Rosalie
TTITLE9=All Night Long
TTITLE10=Early Morning Blues
TTITLE11=Sittin' and Thinkin'
TTITLE12=You Gonna Miss Me When I'm Gone
TTITLE13=Diamonds At Your Feet
EXTD=
EXTT0=
EXTT1=
EXTT2=
EXTT3=
EXTT4=
EXTT5=
EXTT6=
EXTT7=
EXTT8=
EXTT9=
EXTT10=
EXTT11=
EXTT12=
EXTT13=
PLAYORDER=
